<?xml version="1.0" encoding="UTF-8"?>
<svg width="68px" height="77px" viewBox="0 0 68 77" version="1.1" xmlns="http://www.w3.org/2000/svg" xmlns:xlink="http://www.w3.org/1999/xlink">
    <!-- Generator: sketchtool 52.6 (67491) - http://www.bohemiancoding.com/sketch -->
    <title>99CA25DF-2A12-43E6-A886-CE0E1B741EA1</title>
    <desc>Created with sketchtool.</desc>
    <g id="Actual" stroke="none" stroke-width="1" fill="none" fill-rule="evenodd">
        <g id="03-01-01-products" transform="translate(-701.000000, -398.000000)">
            <g id="Group-3" transform="translate(703.000000, 398.000000)">
                <g id="Group-2">
                    <ellipse id="Oval-27" fill="#4DFFE4" cx="36.0555556" cy="42.9435484" rx="29.9444444" ry="29.6370968"></ellipse>
                    <path d="M42.7777778,18.1451613 L42.7777778,11.4919355 C42.7777778,7.13709677 39.2333333,3.62903226 34.8333333,3.62903226 L26.2777778,3.62903226 C21.8777778,3.62903226 18.3333333,7.13709677 18.3333333,11.4919355 L18.3333333,18.1451613 C18.3333333,19.1129032 17.4777778,19.9596774 16.5,19.9596774 C15.5222222,19.9596774 14.6666667,19.1129032 14.6666667,18.1451613 L14.6666667,11.4919355 C14.6666667,5.2016129 19.9222222,0 26.2777778,0 L34.8333333,0 C41.1888889,0 46.4444444,5.2016129 46.4444444,11.4919355 L46.4444444,18.1451613 C46.4444444,19.1129032 45.5888889,19.9596774 44.6111111,19.9596774 C43.6333333,19.9596774 42.7777778,19.1129032 42.7777778,18.1451613 Z" id="Shape" fill="#000000"></path>
                    <path d="M28.3289606,58.1077189 L28.3289606,49.5535714 C28.3289606,48.9314516 29.1845162,48.3870968 30.1622939,48.3870968 C31.1400717,48.3870968 31.9956273,48.9314516 31.9956273,49.5535714 L31.9956273,58.1077189 C31.9956273,58.7298387 31.1400717,59.2741935 30.1622939,59.2741935 C29.1845162,59.2741935 28.3289606,58.7298387 28.3289606,58.1077189 Z" id="Shape" fill="#000000"></path>
                    <ellipse id="Oval-25" stroke="#000000" stroke-width="3" cx="30.1622939" cy="42.9435484" rx="5.5" ry="5.44354839"></ellipse>
                    <ellipse id="Oval-27" stroke="#000000" stroke-width="3" cx="29.9444444" cy="45.3629032" rx="29.9444444" ry="29.6370968"></ellipse>
                </g>
            </g>
        </g>
    </g>
</svg>