<?xml version="1.0" encoding="UTF-8"?>
<svg width="69px" height="80px" viewBox="0 0 69 80" version="1.1" xmlns="http://www.w3.org/2000/svg" xmlns:xlink="http://www.w3.org/1999/xlink">
    <!-- Generator: sketchtool 52.6 (67491) - http://www.bohemiancoding.com/sketch -->
    <title>0A9C293E-11D7-41D9-B8DA-810525D30AC9</title>
    <desc>Created with sketchtool.</desc>
    <g id="Actual" stroke="none" stroke-width="1" fill="none" fill-rule="evenodd">
        <g id="03-01-01-products" transform="translate(-141.000000, -843.000000)">
            <g id="Group-5" transform="translate(141.000000, 843.000000)">
                <g id="Group-4" transform="translate(0.000000, 23.000000)">
                    <path d="M25.690566,44.2641311 L25.690566,56.6287464 L44.7849057,40.3179772 C45.8264151,39.2656695 45.7396226,37.5118234 44.6981132,36.4595157 L25.690566,20.1487464 L25.690566,33.3902849 C19.6150943,29.7949003 15.7962264,23.2179772 15.7962264,15.7641311 C15.7962264,11.3795157 17.0981132,7.34566952 19.354717,4.01336183 C11.1962264,6.73182337 5.29433962,14.4487464 5.29433962,23.5687464 C5.38113208,34.9687464 13.5396226,44.1764388 25.690566,44.2641311 L25.690566,44.2641311 Z" id="Shape" fill="#4DFFE4"></path>
                    <path d="M21.7849057,55.3133618 C21.6113208,55.3133618 21.4377358,55.3133618 21.2641509,55.2256695 C20.8301887,55.0502849 20.4830189,54.5241311 20.4830189,53.9979772 L20.4830189,42.8610541 C8.76603774,42.1595157 0,32.9518234 0,20.9379772 C0,11.467208 5.90188679,3.04874645 14.754717,0.0672079835 C15.2754717,-0.108176632 15.8830189,0.0672079835 16.2301887,0.505669522 C16.5773585,0.94413106 16.5773585,1.55797721 16.2301887,2.08413106 C14.0603774,5.15336183 12.9320755,9.01182337 12.9320755,13.0456695 C12.9320755,19.0964388 15.709434,24.5333618 20.3962264,28.2164388 L20.3962264,17.5179772 C20.3962264,16.9918234 20.6566038,16.5533618 21.1773585,16.2902849 C21.6113208,16.1149003 22.2188679,16.1149003 22.5660377,16.4656695 L41.4867925,32.7764388 L41.5735849,32.8641311 C42.354717,33.6533618 42.7018868,34.6179772 42.7018868,35.7579772 C42.7018868,36.8102849 42.2679245,37.8625926 41.4867925,38.5641311 L41.4,38.6518234 L22.4792453,54.9625926 C22.3924528,55.2256695 22.1320755,55.3133618 21.7849057,55.3133618 L21.7849057,55.3133618 Z M12.1509434,4.18874645 C6.33584906,7.52105414 2.60377358,13.9225926 2.60377358,21.0256695 C2.60377358,32.1625926 10.6754717,40.3179772 21.7849057,40.3179772 C22.4792453,40.3179772 23.0867925,40.9318234 23.0867925,41.6333618 L23.0867925,51.1918234 L39.8377358,36.8102849 C40.0981132,36.547208 40.1849057,36.1964388 40.1849057,35.8456695 C40.1849057,35.4949003 40.0981132,35.1441311 39.8377358,34.8810541 L23.0867925,20.4995157 L23.0867925,30.7595157 C23.0867925,31.1979772 22.8264151,31.6364388 22.3924528,31.8995157 C21.9584906,32.1625926 21.5245283,32.1625926 21.090566,31.8995157 C14.4075472,27.8656695 10.4150943,20.8502849 10.4150943,13.1333618 C10.4150943,9.97643875 11.0226415,6.90720798 12.1509434,4.18874645 L12.1509434,4.18874645 Z" id="Shape" fill="#000000"></path>
                </g>
                <g id="Group-4-Copy" transform="translate(46.000000, 28.500000) scale(-1, -1) translate(-46.000000, -28.500000) translate(23.000000, 0.000000)">
                    <path d="M25.690566,44.2641311 L25.690566,56.6287464 L44.7849057,40.3179772 C45.8264151,39.2656695 45.7396226,37.5118234 44.6981132,36.4595157 L25.690566,20.1487464 L25.690566,33.3902849 C19.6150943,29.7949003 15.7962264,23.2179772 15.7962264,15.7641311 C15.7962264,11.3795157 17.0981132,7.34566952 19.354717,4.01336183 C11.1962264,6.73182337 5.29433962,14.4487464 5.29433962,23.5687464 C5.38113208,34.9687464 13.5396226,44.1764388 25.690566,44.2641311 L25.690566,44.2641311 Z" id="Shape" fill="#4DFFE4"></path>
                    <path d="M21.7849057,55.3133618 C21.6113208,55.3133618 21.4377358,55.3133618 21.2641509,55.2256695 C20.8301887,55.0502849 20.4830189,54.5241311 20.4830189,53.9979772 L20.4830189,42.8610541 C8.76603774,42.1595157 0,32.9518234 0,20.9379772 C0,11.467208 5.90188679,3.04874645 14.754717,0.0672079835 C15.2754717,-0.108176632 15.8830189,0.0672079835 16.2301887,0.505669522 C16.5773585,0.94413106 16.5773585,1.55797721 16.2301887,2.08413106 C14.0603774,5.15336183 12.9320755,9.01182337 12.9320755,13.0456695 C12.9320755,19.0964388 15.709434,24.5333618 20.3962264,28.2164388 L20.3962264,17.5179772 C20.3962264,16.9918234 20.6566038,16.5533618 21.1773585,16.2902849 C21.6113208,16.1149003 22.2188679,16.1149003 22.5660377,16.4656695 L41.4867925,32.7764388 L41.5735849,32.8641311 C42.354717,33.6533618 42.7018868,34.6179772 42.7018868,35.7579772 C42.7018868,36.8102849 42.2679245,37.8625926 41.4867925,38.5641311 L41.4,38.6518234 L22.4792453,54.9625926 C22.3924528,55.2256695 22.1320755,55.3133618 21.7849057,55.3133618 L21.7849057,55.3133618 Z M12.1509434,4.18874645 C6.33584906,7.52105414 2.60377358,13.9225926 2.60377358,21.0256695 C2.60377358,32.1625926 10.6754717,40.3179772 21.7849057,40.3179772 C22.4792453,40.3179772 23.0867925,40.9318234 23.0867925,41.6333618 L23.0867925,51.1918234 L39.8377358,36.8102849 C40.0981132,36.547208 40.1849057,36.1964388 40.1849057,35.8456695 C40.1849057,35.4949003 40.0981132,35.1441311 39.8377358,34.8810541 L23.0867925,20.4995157 L23.0867925,30.7595157 C23.0867925,31.1979772 22.8264151,31.6364388 22.3924528,31.8995157 C21.9584906,32.1625926 21.5245283,32.1625926 21.090566,31.8995157 C14.4075472,27.8656695 10.4150943,20.8502849 10.4150943,13.1333618 C10.4150943,9.97643875 11.0226415,6.90720798 12.1509434,4.18874645 L12.1509434,4.18874645 Z" id="Shape" fill="#000000"></path>
                </g>
            </g>
        </g>
    </g>
</svg>