<?xml version="1.0" encoding="UTF-8"?>
<svg width="88px" height="75px" viewBox="0 0 88 75" version="1.1" xmlns="http://www.w3.org/2000/svg" xmlns:xlink="http://www.w3.org/1999/xlink">
    <!-- Generator: sketchtool 52.6 (67491) - http://www.bohemiancoding.com/sketch -->
    <title>423030AA-8EB2-457C-BAD4-956E1E5367D0</title>
    <desc>Created with sketchtool.</desc>
    <g id="Actual" stroke="none" stroke-width="1" fill="none" fill-rule="evenodd">
        <g id="03-01-01-products" transform="translate(-141.000000, -403.000000)">
            <g id="Group-2" transform="translate(141.000000, 403.000000)">
                <path d="M77.1233336,70.3125 L88,70.3125 C88,59.4034091 79.7065419,50.2670455 68.9658338,49.0397727 C74.2682087,47.9488636 78.3469586,42.9034091 78.3469586,37.3125 C78.3469586,30.9034091 72.5007504,25.3125 65.9747506,25.3125 L55.2340426,25.3125 L55.2340426,70.3125 L77.1233336,70.3125 L77.1233336,70.3125 Z" id="Shape" fill="#4DFFE4"></path>
                <path d="M39.3191489,51.6526442 C36.2038932,49.7175481 32.5468538,48.75 28.4834767,48.75 C16.835129,48.75 7.4893617,57.8725962 7.4893617,70.3125 L23.0656406,70.3125" id="Shape" fill="#4DFFE4"></path>
                <path d="M36.1180508,27.8216912 C34.1249142,25.7536765 31.2016472,24.375 28.1455045,24.375 C21.9003432,24.375 16.8510638,29.6139706 16.8510638,36.09375 C16.8510638,42.5735294 21.9003432,47.8125 28.1455045,47.8125 C31.9989019,47.8125 35.4536719,45.7444853 37.4468085,42.7113971" id="Shape" fill="#4DFFE4"></path>
                <path d="M25.2765957,75 C25.2765957,61.0714286 36.7186761,49.6875 51.0212766,49.6875 C65.3238771,49.6875 76.7659574,60.9375 76.7659574,75" id="Shape" fill="#D9D9D9"></path>
                <ellipse id="Oval" fill="#4DFFE4" cx="51.4893617" cy="34.6875" rx="14.0425532" ry="14.0625"></ellipse>
                <path d="M70.9906133,74.0625 C69.9075928,74.0625 68.9599499,73.1035959 68.9599499,72.0077055 C68.9599499,58.8570205 58.4005006,48.172089 45.4042553,48.172089 C32.40801,48.172089 21.8485607,58.8570205 21.8485607,72.0077055 C21.8485607,73.1035959 20.9009178,74.0625 19.8178974,74.0625 C18.7348769,74.0625 17.787234,73.1035959 17.787234,72.0077055 C17.787234,56.6652397 30.1065916,44.0625 45.4042553,44.0625 C60.5665415,44.0625 73.0212766,56.5282534 73.0212766,72.0077055 C73.0212766,73.2405822 72.2090113,74.0625 70.9906133,74.0625 L70.9906133,74.0625 Z" id="Shape" fill="#000000"></path>
                <path d="M45.8723404,47.8125 C37.1056617,47.8125 29.9574468,40.6541314 29.9574468,31.875 C29.9574468,23.0958686 37.1056617,15.9375 45.8723404,15.9375 C54.6390191,15.9375 61.787234,23.0958686 61.787234,31.875 C61.787234,40.6541314 54.6390191,47.8125 45.8723404,47.8125 L45.8723404,47.8125 Z M45.8723404,19.9894068 C39.2636134,19.9894068 34.0036062,25.3919492 34.0036062,31.875 C34.0036062,38.3580508 39.3984854,43.7605932 45.8723404,43.7605932 C52.4810674,43.7605932 57.7410746,38.3580508 57.7410746,31.875 C57.7410746,25.3919492 52.3461955,19.9894068 45.8723404,19.9894068 L45.8723404,19.9894068 Z" id="Shape" fill="#000000"></path>
                <path d="M17.485748,68.4375 L2.0175863,68.4375 C0.941540275,68.4375 0,67.4797297 0,66.3851351 C0,53.1131757 9.81892001,43.125 22.8659781,43.125 C26.9011507,43.125 30.8018176,44.2195946 34.5679787,46.4087838 C35.5095189,46.9560811 35.9130362,48.1875 35.2405074,49.1452703 C34.7024844,50.1030405 33.4919326,50.5135135 32.5503924,49.8293919 C29.45676,48.0506757 26.0941162,47.0929054 22.8659781,47.0929054 C12.7780466,47.0929054 5.11121863,54.3445946 4.03517261,64.1959459 L17.485748,64.1959459 C18.561794,64.1959459 19.5033343,65.1537162 19.5033343,66.2483108 C19.5033343,67.3429054 18.561794,68.4375 17.485748,68.4375 L17.485748,68.4375 Z" id="Shape" fill="#000000"></path>
                <path d="M22.9675484,46.875 C15.4843329,46.875 9.36170213,40.7578125 9.36170213,33.28125 C9.36170213,25.8046875 15.4843329,19.6875 22.9675484,19.6875 C26.6411269,19.6875 30.0425885,21.046875 32.6276993,23.6296875 C33.44405,24.4453125 33.44405,25.66875 32.6276993,26.484375 C31.8113485,27.3 30.5868223,27.3 29.7704715,26.484375 C28.0017115,24.7171875 25.5526592,23.6296875 22.9675484,23.6296875 C17.6612684,23.6296875 13.443456,27.9796875 13.443456,33.1453125 C13.443456,38.446875 17.7973268,42.6609375 22.9675484,42.6609375 C26.096893,42.6609375 29.0901792,41.165625 30.8589392,38.5828125 C31.5392315,37.63125 32.7637577,37.4953125 33.716167,38.0390625 C34.6685762,38.71875 34.9406931,39.9421875 34.2604008,40.89375 C31.67529,44.7 27.4574777,46.875 22.9675484,46.875 L22.9675484,46.875 Z" id="Shape" fill="#000000"></path>
                <path d="M82.8825929,68.4375 L72.0171977,68.4375 C70.9306581,68.4375 69.9799361,67.4893768 69.9799361,66.4058074 C69.9799361,65.322238 70.9306581,64.3741147 72.0171977,64.3741147 L80.8453313,64.3741147 C79.8946092,55.7055595 72.8321023,48.6623584 63.7323338,47.7142351 C62.7816117,47.578789 61.9667071,46.7661119 61.9667071,45.8179887 C61.9667071,44.8698654 62.6457943,43.9217422 63.5965164,43.786296 C68.0784919,42.8381728 71.3381105,39.0456799 71.3381105,34.5759561 C71.3381105,29.2935552 66.5845001,24.6883853 61.015985,24.6883853 C59.9294455,24.6883853 58.9787234,23.740262 58.9787234,22.6566926 C58.9787234,21.5731232 59.9294455,20.625 61.015985,20.625 C68.6217617,20.625 75.4126337,27.1264164 75.4126337,34.5759561 C75.4126337,38.9102337 73.3753721,42.7027266 70.2515709,45.1407578 C79.0797046,48.5269122 85.1914894,56.7891289 85.1914894,66.5412535 C84.9198545,67.4893768 84.1049498,68.4375 82.8825929,68.4375 L82.8825929,68.4375 Z" id="Shape" fill="#000000"></path>
                <path d="M77.5319149,8.4375 L66.6382979,8.4375 C65.5489362,8.4375 64.5957447,7.5625 64.5957447,6.5625 C64.5957447,5.5625 65.5489362,4.6875 66.6382979,4.6875 L77.5319149,4.6875 C78.6212766,4.6875 79.5744681,5.5625 79.5744681,6.5625 C79.5744681,7.5625 78.6212766,8.4375 77.5319149,8.4375 L77.5319149,8.4375 Z" id="Shape" fill="#000000"></path>
                <path d="M72.0851064,15 C71.0865248,15 70.212766,14.0454545 70.212766,12.9545455 L70.212766,2.04545455 C70.212766,0.954545455 71.0865248,0 72.0851064,0 C73.0836879,0 73.9574468,0.954545455 73.9574468,2.04545455 L73.9574468,12.9545455 C73.9574468,14.0454545 73.0836879,15 72.0851064,15 L72.0851064,15 Z" id="Shape" fill="#000000"></path>
            </g>
        </g>
    </g>
</svg>