<?xml version="1.0" encoding="UTF-8"?>
<svg width="69px" height="62px" viewBox="0 0 69 62" version="1.1" xmlns="http://www.w3.org/2000/svg" xmlns:xlink="http://www.w3.org/1999/xlink">
    <!-- Generator: sketchtool 52.6 (67491) - http://www.bohemiancoding.com/sketch -->
    <title>E83782CE-C380-4926-A9A0-E47342A4E7FB</title>
    <desc>Created with sketchtool.</desc>
    <g id="Actual" stroke="none" stroke-width="1" fill="none" fill-rule="evenodd">
        <g id="03-01-01-products" transform="translate(-707.000000, -852.000000)">
            <g id="Group-6" transform="translate(707.000000, 852.000000)">
                <path d="M50.8782405,62 L26.1782405,62 C21.4782405,62 17.2782405,58.8 15.7782405,54.2 L8.9782405,32.8 C6.7782405,25.8 11.9782405,19 19.3782405,19 L57.6782405,19 C64.9782405,19 70.1782405,25.7 68.0782405,32.7 L61.2782405,54.4 C59.7782405,58.9 55.6782405,62 50.8782405,62 L50.8782405,62 Z" id="Shape" fill="#4DFFE4"></path>
                <polygon id="Shape" fill="#D9D9D9" points="54.4782405 58.3 48.9782405 46.1 43.5782405 48.5 42.4782405 47.5 42.4782405 38 28.4782405 38 28.4782405 44.5 33.6782405 45.6 19.4782405 48.1 19.4782405 59 32.3782405 59 39.8782405 58.8 40.1782405 59.5"></polygon>
                <path d="M43.8782405,60 L19.1782405,60 C13.7782405,60 8.9782405,56.6 7.3782405,51.4 L0.578240503,29.9 C-0.621759497,26.1 0.0782405029,22.2 2.3782405,19 C4.6782405,15.8 8.3782405,14 12.3782405,14 L50.6782405,14 C54.6782405,14 58.2782405,15.8 60.6782405,19 C62.9782405,22.2 63.6782405,26.1 62.4782405,29.9 L55.6782405,51.5 C54.0782405,56.6 49.3782405,60 43.8782405,60 L43.8782405,60 Z M12.3782405,17 C9.3782405,17 6.5782405,18.4 4.7782405,20.8 C3.0782405,23.2 2.5782405,26.2 3.4782405,29 L10.2782405,50.5 C11.4782405,54.4 15.0782405,57 19.1782405,57 L43.8782405,57 C47.9782405,57 51.5782405,54.4 52.7782405,50.6 L59.5782405,29 C60.4782405,26.2 59.9782405,23.2 58.1782405,20.8 C56.3782405,18.4 53.6782405,17 50.5782405,17 L12.3782405,17 L12.3782405,17 Z" id="Shape" fill="#000000"></path>
                <path d="M46.9782405,16.5 C46.1782405,16.5 45.4782405,15.8 45.4782405,15 L45.4782405,9.5 C45.4782405,5.9 42.5782405,3 38.9782405,3 L23.9782405,3 C20.3782405,3 17.4782405,5.9 17.4782405,9.5 L17.4782405,15 C17.4782405,15.8 16.7782405,16.5 15.9782405,16.5 C15.1782405,16.5 14.4782405,15.8 14.4782405,15 L14.4782405,9.5 C14.4782405,4.3 18.7782405,0 23.9782405,0 L38.9782405,0 C44.1782405,0 48.4782405,4.3 48.4782405,9.5 L48.4782405,15 C48.4782405,15.8 47.7782405,16.5 46.9782405,16.5 L46.9782405,16.5 Z" id="Shape" fill="#000000"></path>
                <path d="M36.1782405,59 C35.5782405,59 35.0782405,58.7 34.7782405,58.1 L31.2782405,50.3 C30.9782405,49.5 31.2782405,48.7 31.9782405,48.3 L44.2782405,42.6 C44.6782405,42.4 45.0782405,42.4 45.4782405,42.6 C45.8782405,42.7 46.1782405,43 46.2782405,43.4 L51.7782405,55.7 C52.0782405,56.5 51.7782405,57.3 50.9782405,57.7 C50.1782405,58 49.3782405,57.7 48.9782405,56.9 L44.0782405,46 L34.4782405,50.4 L37.3782405,56.9 C37.6782405,57.7 37.3782405,58.5 36.5782405,58.9 C36.5782405,59 36.3782405,59 36.1782405,59 L36.1782405,59 Z" id="Shape" fill="#000000"></path>
                <path d="M28.3782405,59 L15.9782405,59 C15.1782405,59 14.4782405,58.3 14.4782405,57.5 L14.4782405,46.1 C14.4782405,45.4 14.9782405,44.7 15.7782405,44.6 L32.1782405,41.9 C32.6782405,41.8 33.1782405,42 33.5782405,42.4 C33.8782405,42.8 34.0782405,43.3 33.8782405,43.8 L29.9782405,57.9 C29.6782405,58.6 29.0782405,59 28.3782405,59 L28.3782405,59 Z M17.4782405,56 L27.2782405,56 L30.2782405,45.3 L17.4782405,47.4 L17.4782405,56 L17.4782405,56 Z" id="Shape" fill="#000000"></path>
                <path d="M38.9782405,47.5 C38.1782405,47.5 37.4782405,46.8 37.4782405,46 L37.4782405,38 L26.4782405,38 L26.4782405,43 C26.4782405,43.8 25.7782405,44.5 24.9782405,44.5 C24.1782405,44.5 23.4782405,43.8 23.4782405,43 L23.4782405,36.5 C23.4782405,35.7 24.1782405,35 24.9782405,35 L38.9782405,35 C39.7782405,35 40.4782405,35.7 40.4782405,36.5 L40.4782405,46 C40.4782405,46.8 39.7782405,47.5 38.9782405,47.5 L38.9782405,47.5 Z" id="Shape" fill="#000000"></path>
            </g>
        </g>
    </g>
</svg>