<?xml version="1.0" encoding="UTF-8"?>
<svg width="56px" height="56px" viewBox="0 0 56 56" version="1.1" xmlns="http://www.w3.org/2000/svg" xmlns:xlink="http://www.w3.org/1999/xlink">
    <!-- Generator: sketchtool 52.6 (67491) - http://www.bohemiancoding.com/sketch -->
    <title>47E7A8C0-C92C-42D0-A8A1-4F0450C71368</title>
    <desc>Created with sketchtool.</desc>
    <g id="Actual" stroke="none" stroke-width="1" fill="none" fill-rule="evenodd">
        <g id="02-01-01-about-us" transform="translate(-739.000000, -670.000000)">
            <g id="Group-2" transform="translate(739.000000, 670.000000)">
                <rect id="Rectangle" fill="#4DFFE4" x="17" y="17" width="22" height="22"></rect>
                <g id="noun_Crosshair_667392" fill="#FFFFFF" fill-rule="nonzero">
                    <path d="M29.037037,4.2 L29.037037,0 L26.962963,0 L26.962963,4.2 C14.6201481,4.73096296 4.73096296,14.6201481 4.2,26.962963 L0,26.962963 L0,29.037037 L4.2,29.037037 C4.73096296,41.3798519 14.6201481,51.269037 26.962963,51.8 L26.962963,56 L29.037037,56 L29.037037,51.8 C41.3798519,51.269037 51.269037,41.3798519 51.8,29.037037 L56,29.037037 L56,26.962963 L51.8,26.962963 C51.269037,14.6201481 41.3798519,4.73096296 29.037037,4.2 Z M26.962963,6.27407407 L26.962963,8.34814815 C16.9099259,8.87288889 8.87288889,16.9099259 8.34814815,26.962963 L6.27407407,26.962963 C6.80503704,15.7816296 15.7816296,6.80503704 26.962963,6.27407407 Z M26.962963,49.7259259 C15.7816296,49.194963 6.80503704,40.2183704 6.27407407,29.037037 L8.34814815,29.037037 C8.87288889,39.0900741 16.9099259,47.1271111 26.962963,47.6518519 L26.962963,49.7259259 Z M26.962963,35.2592593 L26.962963,29.037037 L20.7407407,29.037037 L20.7407407,26.962963 L26.962963,26.962963 L26.962963,20.7407407 L29.037037,20.7407407 L29.037037,26.962963 L35.2592593,26.962963 L35.2592593,29.037037 L29.037037,29.037037 L29.037037,35.2592593 L26.962963,35.2592593 Z M29.037037,49.7259259 L29.037037,47.6518519 C39.0900741,47.1271111 47.1271111,39.0900741 47.6518519,29.037037 L49.7259259,29.037037 C49.194963,40.2183704 40.2183704,49.194963 29.037037,49.7259259 Z M47.6518519,26.962963 C47.1271111,16.9099259 39.0900741,8.87288889 29.037037,8.34814815 L29.037037,6.27407407 C40.2183704,6.80503704 49.194963,15.7816296 49.7259259,26.962963 L47.6518519,26.962963 Z" id="Shape"></path>
                </g>
            </g>
        </g>
    </g>
</svg>