<?xml version="1.0" encoding="UTF-8"?>
<svg width="56px" height="39px" viewBox="0 0 56 39" version="1.1" xmlns="http://www.w3.org/2000/svg" xmlns:xlink="http://www.w3.org/1999/xlink">
    <!-- Generator: sketchtool 52.6 (67491) - http://www.bohemiancoding.com/sketch -->
    <title>7A7AAD45-0481-465E-8C49-0707BB976E9B</title>
    <desc>Created with sketchtool.</desc>
    <g id="Actual" stroke="none" stroke-width="1" fill="none" fill-rule="evenodd">
        <g id="02-01-01-about-us" transform="translate(-173.000000, -679.000000)">
            <g id="noun_Vision_786039" transform="translate(173.000000, 679.000000)">
                <g id="Group">
                    <path d="M53.2,16.5548237 L44.8,16.5548237 C43.2566929,16.5548237 42,17.7915537 42,19.3103448 C42,26.9043007 35.7165354,33.0879504 28,33.0879504 C24.2629921,33.0879504 20.7464567,31.6559473 18.1007874,29.0523053 C17.0094488,27.978303 15.2346457,27.978303 14.1433071,29.0523053 C13.0519685,30.1263076 13.0519685,31.8729175 14.1433071,32.9469198 C17.8472441,36.5920186 22.7637795,38.5989926 28,38.5989926 C37.8551181,38.5989926 46.0346457,31.3955831 47.4015748,22.0658659 L53.2,22.0658659 C54.7433071,22.0658659 56,20.829136 56,19.3103448 C56,17.7915537 54.7433071,16.5548237 53.2,16.5548237 Z" id="Path" fill="#FFFFFF"></path>
                    <path d="M28,5.53273925 C31.7370079,5.53273925 35.2535433,6.96474235 37.8992126,9.56838435 C38.9905512,10.6423867 40.7653543,10.6423867 41.8566929,9.56838435 C42.9480315,8.49438202 42.9480315,6.74777218 41.8566929,5.67376986 C38.1527559,2.02867106 33.2362205,0.0216970167 28,0.0216970167 C18.1448819,0.0216970167 9.96535433,7.22510655 8.5984252,16.5548237 L2.8,16.5548237 C1.25669291,16.5548237 0,17.7915537 0,19.3103448 C0,20.829136 1.25669291,22.0658659 2.8,22.0658659 L11.2,22.0658659 C12.7433071,22.0658659 14,20.829136 14,19.3103448 C14,11.716389 20.2834646,5.53273925 28,5.53273925 Z" id="Path" fill="#FFFFFF"></path>
                    <ellipse id="Oval" fill="#4DFFE4" cx="28" cy="19.3103448" rx="8.4" ry="8.26656335"></ellipse>
                </g>
            </g>
        </g>
    </g>
</svg>