<?xml version="1.0" encoding="UTF-8"?>
<svg width="178px" height="178px" viewBox="0 0 178 178" version="1.1" xmlns="http://www.w3.org/2000/svg" xmlns:xlink="http://www.w3.org/1999/xlink">
    <!-- Generator: sketchtool 52.6 (67491) - http://www.bohemiancoding.com/sketch -->
    <title>CE3E4ACA-70A7-4F8F-BAB0-10A7527C8681</title>
    <desc>Created with sketchtool.</desc>
    <g id="Actual" stroke="none" stroke-width="1" fill="none" fill-rule="evenodd">
        <g id="01-01-01-home" transform="translate(-732.000000, -1234.000000)">
            <g id="Group-12" transform="translate(732.000000, 1234.000000)">
                <g id="Group-2" fill="#4D4D4D">
                    <rect id="Rectangle" x="0" y="0" width="2" height="2"></rect>
                    <rect id="Rectangle-Copy-14" x="16" y="0" width="2" height="2"></rect>
                    <rect id="Rectangle-Copy-3" x="0" y="16" width="2" height="2"></rect>
                    <rect id="Rectangle-Copy-15" x="16" y="16" width="2" height="2"></rect>
                    <rect id="Rectangle-Copy-4" x="0" y="32" width="2" height="2"></rect>
                    <rect id="Rectangle-Copy-16" x="16" y="32" width="2" height="2"></rect>
                    <rect id="Rectangle-Copy-5" x="0" y="48" width="2" height="2"></rect>
                    <rect id="Rectangle-Copy-17" x="16" y="48" width="2" height="2"></rect>
                    <rect id="Rectangle-Copy-6" x="0" y="64" width="2" height="2"></rect>
                    <rect id="Rectangle-Copy-18" x="16" y="64" width="2" height="2"></rect>
                    <rect id="Rectangle-Copy-7" x="0" y="80" width="2" height="2"></rect>
                    <rect id="Rectangle-Copy-19" x="16" y="80" width="2" height="2"></rect>
                    <rect id="Rectangle-Copy-8" x="0" y="96" width="2" height="2"></rect>
                    <rect id="Rectangle-Copy-20" x="16" y="96" width="2" height="2"></rect>
                    <rect id="Rectangle-Copy-9" x="0" y="112" width="2" height="2"></rect>
                    <rect id="Rectangle-Copy-21" x="16" y="112" width="2" height="2"></rect>
                    <rect id="Rectangle-Copy-10" x="0" y="128" width="2" height="2"></rect>
                    <rect id="Rectangle-Copy-22" x="16" y="128" width="2" height="2"></rect>
                    <rect id="Rectangle-Copy-11" x="0" y="144" width="2" height="2"></rect>
                    <rect id="Rectangle-Copy-23" x="16" y="144" width="2" height="2"></rect>
                    <rect id="Rectangle-Copy-12" x="0" y="160" width="2" height="2"></rect>
                    <rect id="Rectangle-Copy-24" x="16" y="160" width="2" height="2"></rect>
                    <rect id="Rectangle-Copy-13" x="0" y="176" width="2" height="2"></rect>
                    <rect id="Rectangle-Copy-25" x="16" y="176" width="2" height="2"></rect>
                    <rect id="Rectangle-Copy-37" x="32" y="0" width="2" height="2"></rect>
                    <rect id="Rectangle-Copy-36" x="32" y="16" width="2" height="2"></rect>
                    <rect id="Rectangle-Copy-33" x="32" y="64" width="2" height="2"></rect>
                    <rect id="Rectangle-Copy-32" x="32" y="80" width="2" height="2"></rect>
                    <rect id="Rectangle-Copy-31" x="32" y="96" width="2" height="2"></rect>
                    <rect id="Rectangle-Copy-29" x="32" y="128" width="2" height="2"></rect>
                    <rect id="Rectangle-Copy-28" x="32" y="144" width="2" height="2"></rect>
                    <rect id="Rectangle-Copy-27" x="32" y="160" width="2" height="2"></rect>
                    <rect id="Rectangle-Copy-26" x="32" y="176" width="2" height="2"></rect>
                    <rect id="Rectangle-Copy-49" x="48" y="0" width="2" height="2"></rect>
                    <rect id="Rectangle-Copy-47" x="48" y="32" width="2" height="2"></rect>
                    <rect id="Rectangle-Copy-43" x="48" y="96" width="2" height="2"></rect>
                    <rect id="Rectangle-Copy-41" x="48" y="128" width="2" height="2"></rect>
                    <rect id="Rectangle-Copy-40" x="48" y="144" width="2" height="2"></rect>
                    <rect id="Rectangle-Copy-39" x="48" y="160" width="2" height="2"></rect>
                    <rect id="Rectangle-Copy-38" x="48" y="176" width="2" height="2"></rect>
                    <rect id="Rectangle-Copy-61" x="64" y="0" width="2" height="2"></rect>
                    <rect id="Rectangle-Copy-58" x="64" y="48" width="2" height="2"></rect>
                    <rect id="Rectangle-Copy-56" x="64" y="80" width="2" height="2"></rect>
                    <rect id="Rectangle-Copy-53" x="64" y="128" width="2" height="2"></rect>
                    <rect id="Rectangle-Copy-52" x="64" y="144" width="2" height="2"></rect>
                    <rect id="Rectangle-Copy-51" x="64" y="160" width="2" height="2"></rect>
                    <rect id="Rectangle-Copy-50" x="64" y="176" width="2" height="2"></rect>
                    <rect id="Rectangle-Copy-64" x="80" y="144" width="2" height="2"></rect>
                    <rect id="Rectangle-Copy-63" x="80" y="160" width="2" height="2"></rect>
                    <rect id="Rectangle-Copy-62" x="80" y="176" width="2" height="2"></rect>
                    <rect id="Rectangle-Copy-85" x="96" y="0" width="2" height="2"></rect>
                    <rect id="Rectangle-Copy-83" x="96" y="32" width="2" height="2"></rect>
                    <rect id="Rectangle-Copy-79" x="96" y="96" width="2" height="2"></rect>
                    <rect id="Rectangle-Copy-76" x="96" y="144" width="2" height="2"></rect>
                    <rect id="Rectangle-Copy-75" x="96" y="160" width="2" height="2"></rect>
                    <rect id="Rectangle-Copy-74" x="96" y="176" width="2" height="2"></rect>
                    <rect id="Rectangle-Copy-97" x="112" y="0" width="2" height="2"></rect>
                    <rect id="Rectangle-Copy-95" x="112" y="32" width="2" height="2"></rect>
                    <rect id="Rectangle-Copy-94" x="112" y="48" width="2" height="2"></rect>
                    <rect id="Rectangle-Copy-92" x="112" y="80" width="2" height="2"></rect>
                    <rect id="Rectangle-Copy-91" x="112" y="96" width="2" height="2"></rect>
                    <rect id="Rectangle-Copy-89" x="112" y="128" width="2" height="2"></rect>
                    <rect id="Rectangle-Copy-88" x="112" y="144" width="2" height="2"></rect>
                    <rect id="Rectangle-Copy-87" x="112" y="160" width="2" height="2"></rect>
                    <rect id="Rectangle-Copy-86" x="112" y="176" width="2" height="2"></rect>
                    <rect id="Rectangle-Copy-109" x="128" y="0" width="2" height="2"></rect>
                    <rect id="Rectangle-Copy-106" x="128" y="48" width="2" height="2"></rect>
                    <rect id="Rectangle-Copy-105" x="128" y="64" width="2" height="2"></rect>
                    <rect id="Rectangle-Copy-102" x="128" y="112" width="2" height="2"></rect>
                    <rect id="Rectangle-Copy-101" x="128" y="128" width="2" height="2"></rect>
                    <rect id="Rectangle-Copy-100" x="128" y="144" width="2" height="2"></rect>
                    <rect id="Rectangle-Copy-99" x="128" y="160" width="2" height="2"></rect>
                    <rect id="Rectangle-Copy-98" x="128" y="176" width="2" height="2"></rect>
                    <rect id="Rectangle-Copy-121" x="144" y="0" width="2" height="2"></rect>
                    <rect id="Rectangle-Copy-120" x="144" y="16" width="2" height="2"></rect>
                    <rect id="Rectangle-Copy-119" x="144" y="32" width="2" height="2"></rect>
                    <rect id="Rectangle-Copy-115" x="144" y="96" width="2" height="2"></rect>
                    <rect id="Rectangle-Copy-114" x="144" y="112" width="2" height="2"></rect>
                    <rect id="Rectangle-Copy-113" x="144" y="128" width="2" height="2"></rect>
                    <rect id="Rectangle-Copy-112" x="144" y="144" width="2" height="2"></rect>
                    <rect id="Rectangle-Copy-111" x="144" y="160" width="2" height="2"></rect>
                    <rect id="Rectangle-Copy-110" x="144" y="176" width="2" height="2"></rect>
                    <rect id="Rectangle-Copy-133" x="160" y="0" width="2" height="2"></rect>
                    <rect id="Rectangle-Copy-132" x="160" y="16" width="2" height="2"></rect>
                    <rect id="Rectangle-Copy-131" x="160" y="32" width="2" height="2"></rect>
                    <rect id="Rectangle-Copy-130" x="160" y="48" width="2" height="2"></rect>
                    <rect id="Rectangle-Copy-129" x="160" y="64" width="2" height="2"></rect>
                    <rect id="Rectangle-Copy-128" x="160" y="80" width="2" height="2"></rect>
                    <rect id="Rectangle-Copy-127" x="160" y="96" width="2" height="2"></rect>
                    <rect id="Rectangle-Copy-126" x="160" y="112" width="2" height="2"></rect>
                    <rect id="Rectangle-Copy-125" x="160" y="128" width="2" height="2"></rect>
                    <rect id="Rectangle-Copy-124" x="160" y="144" width="2" height="2"></rect>
                    <rect id="Rectangle-Copy-123" x="160" y="160" width="2" height="2"></rect>
                    <rect id="Rectangle-Copy-122" x="160" y="176" width="2" height="2"></rect>
                    <rect id="Rectangle-Copy-145" x="176" y="0" width="2" height="2"></rect>
                    <rect id="Rectangle-Copy-144" x="176" y="16" width="2" height="2"></rect>
                    <rect id="Rectangle-Copy-143" x="176" y="32" width="2" height="2"></rect>
                    <rect id="Rectangle-Copy-142" x="176" y="48" width="2" height="2"></rect>
                    <rect id="Rectangle-Copy-141" x="176" y="64" width="2" height="2"></rect>
                    <rect id="Rectangle-Copy-140" x="176" y="80" width="2" height="2"></rect>
                    <rect id="Rectangle-Copy-139" x="176" y="96" width="2" height="2"></rect>
                    <rect id="Rectangle-Copy-138" x="176" y="112" width="2" height="2"></rect>
                    <rect id="Rectangle-Copy-137" x="176" y="128" width="2" height="2"></rect>
                    <rect id="Rectangle-Copy-136" x="176" y="144" width="2" height="2"></rect>
                    <rect id="Rectangle-Copy-135" x="176" y="160" width="2" height="2"></rect>
                    <rect id="Rectangle-Copy-134" x="176" y="176" width="2" height="2"></rect>
                </g>
                <g id="Group-4" transform="translate(62.000000, 30.000000)" fill="#4DFFE4">
                    <rect id="Rectangle-Copy-35" x="0" y="32" width="4" height="4"></rect>
                    <rect id="Rectangle-Copy-34" x="0" y="48" width="4" height="4"></rect>
                    <rect id="Rectangle-Copy-30" x="0" y="112" width="4" height="4"></rect>
                    <rect id="Rectangle-Copy-48" x="16" y="16" width="4" height="4"></rect>
                    <rect id="Rectangle-Copy-45" x="16" y="64" width="4" height="4"></rect>
                    <rect id="Rectangle-Copy-72" x="48" y="16" width="4" height="4"></rect>
                    <rect id="Rectangle-Copy-69" x="48" y="64" width="4" height="4"></rect>
                    <rect id="Rectangle-Copy-66" x="48" y="112" width="4" height="4"></rect>
                    <rect id="Rectangle-Copy-84" x="64" y="16" width="4" height="4"></rect>
                    <rect id="Rectangle-Copy-96" x="80" y="16" width="4" height="4"></rect>
                    <rect id="Rectangle-Copy-93" x="80" y="64" width="4" height="4"></rect>
                    <rect id="Rectangle-Copy-90" x="80" y="112" width="4" height="4"></rect>
                    <rect id="Rectangle-Copy-103" x="96" y="96" width="4" height="4"></rect>
                    <rect id="Rectangle-Copy-42" x="16" y="112" width="4" height="4"></rect>
                    <rect id="Rectangle-Copy-60" x="32" y="16" width="4" height="4"></rect>
                    <rect id="Rectangle-Copy-57" x="32" y="64" width="4" height="4"></rect>
                    <rect id="Rectangle-Copy-54" x="32" y="112" width="4" height="4"></rect>
                    <rect id="Rectangle-Copy-73" x="48" y="0" width="4" height="4"></rect>
                    <rect id="Rectangle-Copy-71" x="48" y="32" width="4" height="4"></rect>
                    <rect id="Rectangle-Copy-70" x="48" y="48" width="4" height="4"></rect>
                    <rect id="Rectangle-Copy-68" x="48" y="80" width="4" height="4"></rect>
                    <rect id="Rectangle-Copy-67" x="48" y="96" width="4" height="4"></rect>
                    <rect id="Rectangle-Copy-65" x="48" y="128" width="4" height="4"></rect>
                    <rect id="Rectangle-Copy-81" x="64" y="64" width="4" height="4"></rect>
                    <rect id="Rectangle-Copy-78" x="64" y="112" width="4" height="4"></rect>
                    <rect id="Rectangle-Copy-108" x="96" y="16" width="4" height="4"></rect>
                    <rect id="Rectangle-Copy-104" x="96" y="80" width="4" height="4"></rect>
                </g>
            </g>
        </g>
    </g>
</svg>