<?xml version="1.0" encoding="UTF-8"?>
<svg width="179px" height="178px" viewBox="0 0 179 178" version="1.1" xmlns="http://www.w3.org/2000/svg" xmlns:xlink="http://www.w3.org/1999/xlink">
    <!-- Generator: sketchtool 52.6 (67491) - http://www.bohemiancoding.com/sketch -->
    <title>36D5736A-9A36-4D5E-90C0-799DD32B5D8E</title>
    <desc>Created with sketchtool.</desc>
    <g id="Actual" stroke="none" stroke-width="1" fill="none" fill-rule="evenodd">
        <g id="01-01-01-home" transform="translate(-732.000000, -1630.000000)">
            <g id="Group-10" transform="translate(732.000000, 1630.000000)">
                <g id="Group-2-Copy">
                    <rect id="Rectangle" fill="#4D4D4D" x="0" y="0" width="2" height="2"></rect>
                    <rect id="Rectangle-Copy-14" fill="#4D4D4D" x="16" y="0" width="2" height="2"></rect>
                    <rect id="Rectangle-Copy-3" fill="#4D4D4D" x="0" y="16" width="2" height="2"></rect>
                    <rect id="Rectangle-Copy-15" fill="#4D4D4D" x="16" y="16" width="2" height="2"></rect>
                    <rect id="Rectangle-Copy-4" fill="#4D4D4D" x="0" y="32" width="2" height="2"></rect>
                    <rect id="Rectangle-Copy-16" fill="#4D4D4D" x="16" y="32" width="2" height="2"></rect>
                    <rect id="Rectangle-Copy-5" fill="#4D4D4D" x="0" y="48" width="2" height="2"></rect>
                    <rect id="Rectangle-Copy-17" fill="#4D4D4D" x="16" y="48" width="2" height="2"></rect>
                    <rect id="Rectangle-Copy-6" fill="#4D4D4D" x="0" y="64" width="2" height="2"></rect>
                    <rect id="Rectangle-Copy-18" fill="#4D4D4D" x="16" y="64" width="2" height="2"></rect>
                    <rect id="Rectangle-Copy-7" fill="#4D4D4D" x="0" y="80" width="2" height="2"></rect>
                    <rect id="Rectangle-Copy-19" fill="#4D4D4D" x="16" y="80" width="2" height="2"></rect>
                    <rect id="Rectangle-Copy-8" fill="#4D4D4D" x="0" y="96" width="2" height="2"></rect>
                    <rect id="Rectangle-Copy-20" fill="#4D4D4D" x="16" y="96" width="2" height="2"></rect>
                    <rect id="Rectangle-Copy-9" fill="#4D4D4D" x="0" y="112" width="2" height="2"></rect>
                    <rect id="Rectangle-Copy-21" fill="#4D4D4D" x="16" y="112" width="2" height="2"></rect>
                    <rect id="Rectangle-Copy-10" fill="#4D4D4D" x="0" y="128" width="2" height="2"></rect>
                    <rect id="Rectangle-Copy-22" fill="#4D4D4D" x="16" y="128" width="2" height="2"></rect>
                    <rect id="Rectangle-Copy-11" fill="#4D4D4D" x="0" y="144" width="2" height="2"></rect>
                    <rect id="Rectangle-Copy-23" fill="#4D4D4D" x="16" y="144" width="2" height="2"></rect>
                    <rect id="Rectangle-Copy-12" fill="#4D4D4D" x="0" y="160" width="2" height="2"></rect>
                    <rect id="Rectangle-Copy-24" fill="#4D4D4D" x="16" y="160" width="2" height="2"></rect>
                    <rect id="Rectangle-Copy-13" fill="#4D4D4D" x="0" y="176" width="2" height="2"></rect>
                    <rect id="Rectangle-Copy-25" fill="#4D4D4D" x="16" y="176" width="2" height="2"></rect>
                    <rect id="Rectangle-Copy-37" fill="#4D4D4D" x="32" y="0" width="2" height="2"></rect>
                    <rect id="Rectangle-Copy-36" fill="#4D4D4D" x="32" y="16" width="2" height="2"></rect>
                    <rect id="Rectangle-Copy-35" fill="#4D4D4D" x="32" y="32" width="2" height="2"></rect>
                    <rect id="Rectangle-Copy-34" fill="#4D4D4D" x="32" y="48" width="2" height="2"></rect>
                    <rect id="Rectangle-Copy-33" fill="#4D4D4D" x="32" y="64" width="2" height="2"></rect>
                    <rect id="Rectangle-Copy-32" fill="#4D4D4D" x="32" y="80" width="2" height="2"></rect>
                    <rect id="Rectangle-Copy-31" fill="#4D4D4D" x="32" y="96" width="2" height="2"></rect>
                    <rect id="Rectangle-Copy-30" fill="#4D4D4D" x="32" y="112" width="2" height="2"></rect>
                    <rect id="Rectangle-Copy-29" fill="#4D4D4D" x="32" y="128" width="2" height="2"></rect>
                    <rect id="Rectangle-Copy-28" fill="#4D4D4D" x="32" y="144" width="2" height="2"></rect>
                    <rect id="Rectangle-Copy-27" fill="#4D4D4D" x="32" y="160" width="2" height="2"></rect>
                    <rect id="Rectangle-Copy-26" fill="#4D4D4D" x="32" y="176" width="2" height="2"></rect>
                    <rect id="Rectangle-Copy-49" fill="#4D4D4D" x="48" y="0" width="2" height="2"></rect>
                    <rect id="Rectangle-Copy-41" fill="#4D4D4D" x="48" y="128" width="2" height="2"></rect>
                    <rect id="Rectangle-Copy-39" fill="#4D4D4D" x="48" y="160" width="2" height="2"></rect>
                    <rect id="Rectangle-Copy-38" fill="#4D4D4D" x="48" y="176" width="2" height="2"></rect>
                    <rect id="Rectangle-Copy-61" fill="#4D4D4D" x="64" y="0" width="2" height="2"></rect>
                    <rect id="Rectangle-Copy-57" fill="#4D4D4D" x="64" y="64" width="2" height="2"></rect>
                    <rect id="Rectangle-Copy-53" fill="#4D4D4D" x="64" y="128" width="2" height="2"></rect>
                    <rect id="Rectangle-Copy-147" fill="#4D4D4D" x="64" y="32" width="2" height="2"></rect>
                    <rect id="Rectangle-Copy-146" fill="#4D4D4D" x="64" y="96" width="2" height="2"></rect>
                    <rect id="Rectangle-Copy-51" fill="#4D4D4D" x="64" y="160" width="2" height="2"></rect>
                    <rect id="Rectangle-Copy-50" fill="#4D4D4D" x="64" y="176" width="2" height="2"></rect>
                    <rect id="Rectangle-Copy-73" fill="#4D4D4D" x="80" y="0" width="2" height="2"></rect>
                    <rect id="Rectangle-Copy-65" fill="#4D4D4D" x="80" y="128" width="2" height="2"></rect>
                    <rect id="Rectangle-Copy-63" fill="#4D4D4D" x="80" y="160" width="2" height="2"></rect>
                    <rect id="Rectangle-Copy-62" fill="#4D4D4D" x="80" y="176" width="2" height="2"></rect>
                    <rect id="Rectangle-Copy-85" fill="#4D4D4D" x="96" y="0" width="2" height="2"></rect>
                    <rect id="Rectangle-Copy-83" fill="#4D4D4D" x="96" y="32" width="2" height="2"></rect>
                    <rect id="Rectangle-Copy-81" fill="#4DFFE4" x="96" y="64" width="4" height="4"></rect>
                    <rect id="Rectangle-Copy-79" fill="#4D4D4D" x="96" y="96" width="2" height="2"></rect>
                    <rect id="Rectangle-Copy-75" fill="#4D4D4D" x="96" y="160" width="2" height="2"></rect>
                    <rect id="Rectangle-Copy-74" fill="#4D4D4D" x="96" y="176" width="2" height="2"></rect>
                    <rect id="Rectangle-Copy-97" fill="#4D4D4D" x="112" y="0" width="2" height="2"></rect>
                    <rect id="Rectangle-Copy-95" fill="#4D4D4D" x="112" y="32" width="2" height="2"></rect>
                    <rect id="Rectangle-Copy-91" fill="#4D4D4D" x="112" y="96" width="2" height="2"></rect>
                    <rect id="Rectangle-Copy-89" fill="#4D4D4D" x="112" y="128" width="2" height="2"></rect>
                    <rect id="Rectangle-Copy-87" fill="#4D4D4D" x="112" y="160" width="2" height="2"></rect>
                    <rect id="Rectangle-Copy-86" fill="#4D4D4D" x="112" y="176" width="2" height="2"></rect>
                    <rect id="Rectangle-Copy-109" fill="#4D4D4D" x="128" y="0" width="2" height="2"></rect>
                    <rect id="Rectangle-Copy-105" fill="#4D4D4D" x="128" y="64" width="2" height="2"></rect>
                    <rect id="Rectangle-Copy-101" fill="#4D4D4D" x="128" y="128" width="2" height="2"></rect>
                    <rect id="Rectangle-Copy-99" fill="#4D4D4D" x="128" y="160" width="2" height="2"></rect>
                    <rect id="Rectangle-Copy-98" fill="#4D4D4D" x="128" y="176" width="2" height="2"></rect>
                    <rect id="Rectangle-Copy-121" fill="#4D4D4D" x="144" y="0" width="2" height="2"></rect>
                    <rect id="Rectangle-Copy-113" fill="#4D4D4D" x="144" y="128" width="2" height="2"></rect>
                    <rect id="Rectangle-Copy-111" fill="#4D4D4D" x="144" y="160" width="2" height="2"></rect>
                    <rect id="Rectangle-Copy-110" fill="#4D4D4D" x="144" y="176" width="2" height="2"></rect>
                    <rect id="Rectangle-Copy-133" fill="#4D4D4D" x="160" y="0" width="2" height="2"></rect>
                    <rect id="Rectangle-Copy-132" fill="#4D4D4D" x="160" y="16" width="2" height="2"></rect>
                    <rect id="Rectangle-Copy-131" fill="#4D4D4D" x="160" y="32" width="2" height="2"></rect>
                    <rect id="Rectangle-Copy-130" fill="#4D4D4D" x="160" y="48" width="2" height="2"></rect>
                    <rect id="Rectangle-Copy-129" fill="#4D4D4D" x="160" y="64" width="2" height="2"></rect>
                    <rect id="Rectangle-Copy-128" fill="#4D4D4D" x="160" y="80" width="2" height="2"></rect>
                    <rect id="Rectangle-Copy-127" fill="#4D4D4D" x="160" y="96" width="2" height="2"></rect>
                    <rect id="Rectangle-Copy-126" fill="#4D4D4D" x="160" y="112" width="2" height="2"></rect>
                    <rect id="Rectangle-Copy-125" fill="#4D4D4D" x="160" y="128" width="2" height="2"></rect>
                    <rect id="Rectangle-Copy-124" fill="#4D4D4D" x="160" y="144" width="2" height="2"></rect>
                    <rect id="Rectangle-Copy-123" fill="#4D4D4D" x="160" y="160" width="2" height="2"></rect>
                    <rect id="Rectangle-Copy-122" fill="#4D4D4D" x="160" y="176" width="2" height="2"></rect>
                    <rect id="Rectangle-Copy-145" fill="#4D4D4D" x="176" y="0" width="2" height="2"></rect>
                    <rect id="Rectangle-Copy-144" fill="#4D4D4D" x="176" y="16" width="2" height="2"></rect>
                    <rect id="Rectangle-Copy-143" fill="#4D4D4D" x="176" y="32" width="2" height="2"></rect>
                    <rect id="Rectangle-Copy-142" fill="#4D4D4D" x="176" y="48" width="2" height="2"></rect>
                    <rect id="Rectangle-Copy-141" fill="#4D4D4D" x="176" y="64" width="2" height="2"></rect>
                    <rect id="Rectangle-Copy-140" fill="#4D4D4D" x="176" y="80" width="2" height="2"></rect>
                    <rect id="Rectangle-Copy-139" fill="#4D4D4D" x="176" y="96" width="2" height="2"></rect>
                    <rect id="Rectangle-Copy-138" fill="#4D4D4D" x="176" y="112" width="2" height="2"></rect>
                    <rect id="Rectangle-Copy-137" fill="#4D4D4D" x="176" y="128" width="2" height="2"></rect>
                    <rect id="Rectangle-Copy-136" fill="#4D4D4D" x="176" y="144" width="2" height="2"></rect>
                    <rect id="Rectangle-Copy-135" fill="#4D4D4D" x="176" y="160" width="2" height="2"></rect>
                    <rect id="Rectangle-Copy-134" fill="#4D4D4D" x="176" y="176" width="2" height="2"></rect>
                </g>
                <g id="Group-7" transform="translate(79.000000, 31.000000)" fill="#4DFFE4">
                    <rect id="Rectangle-Copy-48" x="0" y="0" width="4" height="4"></rect>
                    <rect id="Rectangle-Copy-47" x="0" y="16" width="4" height="4"></rect>
                    <rect id="Rectangle-Copy-46" x="0" y="32" width="4" height="4"></rect>
                    <rect id="Rectangle-Copy-44" x="0" y="64" width="4" height="4"></rect>
                    <rect id="Rectangle-Copy-72" x="32" y="0" width="4" height="4"></rect>
                    <rect id="Rectangle-Copy-66" x="32" y="96" width="4" height="4"></rect>
                    <rect id="Rectangle-Copy-84" x="48" y="0" width="4" height="4"></rect>
                    <rect id="Rectangle-Copy-82" x="48" y="32" width="4" height="4"></rect>
                    <rect id="Rectangle-Copy-80" x="48" y="64" width="4" height="4"></rect>
                    <rect id="Rectangle-Copy-148" x="48" y="48" width="4" height="4"></rect>
                    <rect id="Rectangle-Copy-77" x="48" y="112" width="4" height="4"></rect>
                    <rect id="Rectangle-Copy-96" x="64" y="0" width="4" height="4"></rect>
                    <rect id="Rectangle-Copy-90" x="64" y="96" width="4" height="4"></rect>
                    <rect id="Rectangle-Copy-118" x="96" y="32" width="4" height="4"></rect>
                    <rect id="Rectangle-Copy-116" x="96" y="64" width="4" height="4"></rect>
                    <rect id="Rectangle-Copy-43" x="0" y="80" width="4" height="4"></rect>
                    <rect id="Rectangle-Copy-42" x="0" y="96" width="4" height="4"></rect>
                    <rect id="Rectangle-Copy-40" x="0" y="128" width="4" height="4"></rect>
                    <rect id="Rectangle-Copy-60" x="16" y="0" width="4" height="4"></rect>
                    <rect id="Rectangle-Copy-58" x="16" y="32" width="4" height="4"></rect>
                    <rect id="Rectangle-Copy-56" x="16" y="64" width="4" height="4"></rect>
                    <rect id="Rectangle-Copy-54" x="16" y="96" width="4" height="4"></rect>
                    <rect id="Rectangle-Copy-52" x="16" y="128" width="4" height="4"></rect>
                    <rect id="Rectangle-Copy-71" x="32" y="16" width="4" height="4"></rect>
                    <rect id="Rectangle-Copy-70" x="32" y="32" width="4" height="4"></rect>
                    <rect id="Rectangle-Copy-68" x="32" y="64" width="4" height="4"></rect>
                    <rect id="Rectangle-Copy-67" x="32" y="80" width="4" height="4"></rect>
                    <rect id="Rectangle-Copy-64" x="32" y="128" width="4" height="4"></rect>
                    <rect id="Rectangle-Copy-78" x="48" y="96" width="4" height="4"></rect>
                    <rect id="Rectangle-Copy-76" x="48" y="128" width="4" height="4"></rect>
                    <rect id="Rectangle-Copy-94" x="64" y="32" width="4" height="4"></rect>
                    <rect id="Rectangle-Copy-92" x="64" y="64" width="4" height="4"></rect>
                    <rect id="Rectangle-Copy-88" x="64" y="128" width="4" height="4"></rect>
                    <rect id="Rectangle-Copy-108" x="80" y="0" width="4" height="4"></rect>
                    <rect id="Rectangle-Copy-106" x="80" y="32" width="4" height="4"></rect>
                    <rect id="Rectangle-Copy-104" x="80" y="64" width="4" height="4"></rect>
                    <rect id="Rectangle-Copy-102" x="80" y="96" width="4" height="4"></rect>
                    <rect id="Rectangle-Copy-100" x="80" y="128" width="4" height="4"></rect>
                    <rect id="Rectangle-Copy-120" x="96" y="0" width="4" height="4"></rect>
                    <rect id="Rectangle-Copy-119" x="96" y="16" width="4" height="4"></rect>
                    <rect id="Rectangle-Copy-115" x="96" y="80" width="4" height="4"></rect>
                    <rect id="Rectangle-Copy-114" x="96" y="96" width="4" height="4"></rect>
                    <rect id="Rectangle-Copy-112" x="96" y="128" width="4" height="4"></rect>
                </g>
            </g>
        </g>
    </g>
</svg>