<?xml version="1.0" encoding="UTF-8"?>
<svg width="40px" height="40px" viewBox="0 0 40 40" version="1.1" xmlns="http://www.w3.org/2000/svg" xmlns:xlink="http://www.w3.org/1999/xlink">
    <!-- Generator: sketchtool 52.6 (67491) - http://www.bohemiancoding.com/sketch -->
    <title>3CBE15CC-0726-40E2-B6EB-D61A29BCD83B</title>
    <desc>Created with sketchtool.</desc>
    <g id="Actual" stroke="none" stroke-width="1" fill="none" fill-rule="evenodd">
        <g id="02-01-01-about-us" transform="translate(-141.000000, -950.000000)" fill="#000000">
            <path d="M150.170868,966.984047 L161.193239,968.104998 C162.092762,968.196903 162.80419,968.908331 162.895618,969.807378 L164.016093,980.82832 L175.304654,955.695486 L150.170868,966.984047 Z M162.841333,990.000216 C162.74038,990.000216 162.638476,989.992121 162.536571,989.975454 C161.685143,989.837835 161.032763,989.145455 160.94562,988.287837 L159.262765,971.737852 L142.711828,970.05452 C141.854209,969.967377 141.162305,969.314521 141.024686,968.463569 C140.886591,967.612618 141.338019,966.774999 142.124685,966.421666 L178.314652,950.167396 C179.035603,949.84311 179.882745,949.998825 180.442269,950.557872 C181.001316,951.116919 181.156554,951.964061 180.832745,952.685013 L164.577998,988.875455 C164.267046,989.567359 163.581332,989.99974 162.841333,990.000216 L162.841333,990.000216 Z" id="direction"></path>
        </g>
    </g>
</svg>