<?xml version="1.0" encoding="UTF-8"?>
<svg width="48px" height="48px" viewBox="0 0 48 48" version="1.1" xmlns="http://www.w3.org/2000/svg" xmlns:xlink="http://www.w3.org/1999/xlink">
    <!-- Generator: sketchtool 52.6 (67491) - http://www.bohemiancoding.com/sketch -->
    <title>BD5EBA64-835A-4585-B100-26C5B7827212</title>
    <desc>Created with sketchtool.</desc>
    <g id="Actual" stroke="none" stroke-width="1" fill="none" fill-rule="evenodd">
        <g id="02-01-01-about-us" transform="translate(-680.000000, -950.000000)" fill="#000000">
            <path d="M718.01913,988.01913 C716.011478,990.026783 713.646435,991.545565 711.070609,992.528 L709.920174,985.140696 C711.009565,984.56 712.01913,983.814957 712.917043,982.917043 C713.823826,982.010261 714.560522,980.997565 715.13287,979.919652 L722.527478,981.07113 C721.545565,983.646957 720.026783,986.011478 718.01913,988.01913 M704,993.826087 C702.626261,993.826087 701.274435,993.684696 699.95913,993.413391 L701.072,986.267652 C702.020522,986.492522 703.00087,986.610435 704,986.610435 L704,986.610435 C704.99913,986.610435 705.979478,986.492522 706.927478,986.268174 L708.040348,993.413913 C706.725043,993.684696 705.373739,993.826087 704,993.826087 M685.472522,981.070609 L692.859826,979.920696 C693.440522,981.009565 694.185565,982.01913 695.083478,982.917043 C695.98087,983.814435 696.990435,984.56 698.079304,985.140174 L696.929391,992.528 C694.353043,991.546087 691.988522,990.027304 689.98087,988.01913 C687.973217,986.011478 686.454435,983.646957 685.472522,981.070609 M684.173913,974 C684.173913,972.626261 684.315826,971.274957 684.586609,969.959652 L691.732348,971.072522 C691.508,972.020522 691.389565,973.001391 691.389565,974 C691.389565,974.99913 691.508,975.979478 691.732348,976.927478 L684.586609,978.040348 C684.315304,976.725565 684.173913,975.373739 684.173913,974 M689.98087,959.98087 C691.989043,957.973217 694.353565,956.454435 696.929391,955.472522 L698.08087,962.867652 C697.002957,963.44 695.990261,964.176696 695.084,965.083478 C694.186087,965.98087 693.440522,966.990435 692.859826,968.079826 L685.472522,966.929391 C686.454435,964.353565 687.973217,961.988522 689.98087,959.98087 M704,954.173913 C705.373739,954.173913 706.725565,954.315826 708.040348,954.586609 L706.92487,961.752174 C705.002261,961.296696 702.997739,961.296696 701.075652,961.752174 L699.959652,954.586609 C701.274435,954.315826 702.626261,954.173913 704,954.173913 M704,982.436522 C701.746609,982.436522 699.628348,981.558957 698.034957,979.965565 C696.441565,978.372174 695.563478,976.253391 695.563478,974 C695.563478,971.74713 696.441565,969.628348 698.034957,968.034957 C699.679478,966.390435 701.84,965.568174 704,965.568174 C706.160522,965.568174 708.321043,966.390435 709.965043,968.034957 C711.558957,969.628348 712.436,971.74713 712.436,974.000522 C712.436,976.253913 711.558957,978.372174 709.965043,979.965565 C708.372174,981.558957 706.253391,982.436522 704,982.436522 M722.527478,966.929391 L715.13287,968.08087 C714.560522,967.002957 713.823826,965.990261 712.917043,965.083478 C712.010261,964.176696 710.997043,963.44 709.91913,962.867652 L711.070609,955.472522 C713.646957,956.454435 716.011478,957.973739 718.01913,959.981391 C720.026783,961.989043 721.545565,964.353565 722.527478,966.929391 M716.248348,971.075652 L723.413391,969.959652 C723.684174,971.274957 723.826087,972.626783 723.826087,974.000522 C723.826087,975.374261 723.684174,976.725565 723.413391,978.04087 L716.248348,976.92487 C716.703826,975.002261 716.703826,972.998261 716.248348,971.075652 M720.970609,957.029913 C716.437217,952.497043 710.410609,950 704,950 C703.999478,950 704,950 704,950 C697.589391,950 691.562261,952.497043 687.029391,957.029391 C682.496522,961.562783 680,967.589391 680,974 C680,980.410609 682.496522,986.437739 687.029391,990.97113 C691.562783,995.504 697.589391,998.000522 704,998 C710.410609,998 716.437739,995.503478 720.970609,990.970609 C725.503478,986.437739 728,980.410609 728,974.000522 C728,967.589913 725.503478,961.562783 720.970609,957.029913" id="help"></path>
        </g>
    </g>
</svg>