<?xml version="1.0" encoding="UTF-8"?>
<svg width="34px" height="45px" viewBox="0 0 34 45" version="1.1" xmlns="http://www.w3.org/2000/svg" xmlns:xlink="http://www.w3.org/1999/xlink">
    <!-- Generator: sketchtool 52.6 (67491) - http://www.bohemiancoding.com/sketch -->
    <title>824FD10A-25C0-4E1B-AFAD-F8B1247D3CFB</title>
    <desc>Created with sketchtool.</desc>
    <g id="Actual" stroke="none" stroke-width="1" fill="none" fill-rule="evenodd">
        <g id="02-01-01-about-us" transform="translate(-950.000000, -950.000000)" fill="#000000">
            <path d="M975.257143,970.853657 L975.257143,968.466857 C975.257143,967.527971 976.018257,966.766857 976.957143,966.766857 C977.896029,966.766857 978.657143,967.527971 978.657143,968.466857 L978.657143,970.853657 C978.657143,971.792543 977.896029,972.553657 976.957143,972.553657 C976.018257,972.553657 975.257143,971.792543 975.257143,970.853657 L975.257143,970.853657 Z M967,990.8 C958.481057,990.8 953.885714,988.155286 953.885714,987.0736 L953.885714,977.552629 C957.166714,979.2672 962.099143,980.149257 967,980.149257 C971.900857,980.149257 976.833286,979.2672 980.114286,977.552629 L980.114286,987.0736 C980.114286,988.155286 975.518943,990.8 967,990.8 L967,990.8 Z M967,953.885714 C975.652514,953.885714 980.114286,956.633886 980.114286,957.8064 C980.114286,958.978429 975.652514,961.7266 967,961.7266 C958.347486,961.7266 953.885714,958.978429 953.885714,957.8064 C953.885714,956.633886 958.347486,953.885714 967,953.885714 L967,953.885714 Z M980.114286,972.536657 C980.114286,973.618343 975.518943,976.263543 967,976.263543 C958.481057,976.263543 953.885714,973.618343 953.885714,972.536657 L953.885714,962.949629 C957.166714,964.707914 962.099143,965.612314 967,965.612314 C971.900857,965.612314 976.833286,964.707914 980.114286,962.949629 L980.114286,972.536657 Z M984,957.8064 C984,952.681629 975.448029,950 967,950 C958.551971,950 950,952.681629 950,957.8064 C950,957.849629 950.005343,957.890914 950.0068,957.933657 C950.005829,957.956486 950,957.977371 950,958.0002 L950,987.0736 C950,992.071114 958.551971,994.685714 967,994.685714 C975.448029,994.685714 984,992.071114 984,987.0736 L984,958.0002 C984,957.977371 983.994171,957.956486 983.9932,957.933657 C983.994657,957.890914 984,957.849629 984,957.8064 L984,957.8064 Z" id="stack"></path>
        </g>
    </g>
</svg>