<?xml version="1.0" encoding="UTF-8"?>
<svg width="48px" height="43px" viewBox="0 0 48 43" version="1.1" xmlns="http://www.w3.org/2000/svg" xmlns:xlink="http://www.w3.org/1999/xlink">
    <!-- Generator: sketchtool 52.6 (67491) - http://www.bohemiancoding.com/sketch -->
    <title>0A3E9029-A30A-4BC4-8CFD-DED655923F0B</title>
    <desc>Created with sketchtool.</desc>
    <g id="Actual" stroke="none" stroke-width="1" fill="none" fill-rule="evenodd">
        <g id="02-01-01-about-us" transform="translate(-411.000000, -950.000000)" fill="#000000">
            <path d="M454.733333,964.755733 C454.733333,963.822933 453.9744,962.8 453.042133,962.8 L416.140267,962.8 C415.658667,962.8 415.266667,963.456 415.266667,963.938133 L415.266667,968.4016 L415.266667,987.585067 C415.266667,988.034133 415.632533,988.4 416.082133,988.4 L454.672533,988.4 C454.706133,988.4 454.733333,988.3728 454.733333,988.339733 L454.733333,964.755733 Z M414.9664,956.4 C414.9664,957.578667 415.9216,958.533333 417.099733,958.533333 L447.8,958.533333 L447.8,955.202667 C447.8,954.685867 447.3808,954.266667 446.864,954.266667 L417.099733,954.266667 C415.9216,954.266667 414.9664,955.221867 414.9664,956.4 L414.9664,956.4 Z M459,964.755733 L459,988.339733 C459,990.725867 457.058667,992.666667 454.672533,992.666667 L416.082133,992.666667 C413.279467,992.666667 411,990.3872 411,987.585067 L411,968.4016 L411,963.938133 L411,956.381333 C411,952.862933 413.860267,950 417.376,950 L446.868267,950 C449.804267,950 452.066667,952.3904 452.066667,955.329067 L452.066667,958.533333 L453.042133,958.533333 C456.327467,958.533333 459,961.4704 459,964.755733 L459,964.755733 Z M449.032,973.093333 C449.730667,973.7872 450.125333,974.746667 450.125333,975.733333 C450.125333,976.714667 449.730667,977.674667 449.032,978.373333 C448.338667,979.066667 447.378667,979.466667 446.392,979.466667 C445.410667,979.466667 444.450667,979.066667 443.752,978.373333 C443.058667,977.674667 442.658667,976.714667 442.658667,975.733333 C442.658667,974.746667 443.058667,973.7872 443.752,973.093333 C444.450667,972.394667 445.410667,972 446.392,972 C447.378667,972 448.338667,972.394667 449.032,973.093333 L449.032,973.093333 Z" id="wallet"></path>
        </g>
    </g>
</svg>