<?xml version="1.0" encoding="UTF-8"?>
<svg width="215px" height="21px" viewBox="0 0 215 21" version="1.1" xmlns="http://www.w3.org/2000/svg" xmlns:xlink="http://www.w3.org/1999/xlink">
    <!-- Generator: sketchtool 52.6 (67491) - http://www.bohemiancoding.com/sketch -->
    <title>FDF860D4-DA40-42D8-B788-9134A31FE639</title>
    <desc>Created with sketchtool.</desc>
    <g id="Actual" stroke="none" stroke-width="1" fill="none" fill-rule="evenodd">
        <g id="01-01-01-home" transform="translate(-158.000000, -62.000000)" fill="#FFFFFF">
            <g id="Group" transform="translate(144.000000, 48.000000)">
                <g id="SUPER-SONIC-PROXIES-2" transform="translate(14.000000, 14.000000)">
                    <path d="M11.315918,6.39648438 L6.54296875,6.39648438 L6.54296875,4.93164062 C6.54296875,4.24804346 6.4819342,3.8126637 6.35986328,3.62548828 C6.23779236,3.43831287 6.03434387,3.34472656 5.74951172,3.34472656 C5.44026538,3.34472656 5.20629962,3.47086462 5.04760742,3.72314453 C4.88891522,3.97542444 4.80957031,4.35790759 4.80957031,4.87060547 C4.80957031,5.52978845 4.89908765,6.02620276 5.078125,6.35986328 C5.24902429,6.6935238 5.73323169,7.09635181 6.53076172,7.56835938 C8.81755701,8.92741565 10.2579723,10.0423134 10.8520508,10.9130859 C11.4461293,11.7838585 11.7431641,13.1876531 11.7431641,15.1245117 C11.7431641,16.5323964 11.5783708,17.5699836 11.2487793,18.2373047 C10.9191878,18.9046257 10.282394,19.4641091 9.33837891,19.9157715 C8.39436377,20.3674339 7.29574194,20.5932617 6.04248047,20.5932617 C4.66714807,20.5932617 3.49325031,20.3328477 2.52075195,19.8120117 C1.5482536,19.2911758 0.911459839,18.6279337 0.610351562,17.8222656 C0.309243286,17.0165975 0.158691406,15.873217 0.158691406,14.3920898 L0.158691406,13.0981445 L4.93164062,13.0981445 L4.93164062,15.5029297 C4.93164062,16.2434933 4.99877863,16.7195627 5.13305664,16.9311523 C5.26733466,17.1427419 5.50536938,17.2485352 5.84716797,17.2485352 C6.18896655,17.2485352 6.44327716,17.1142592 6.61010742,16.8457031 C6.77693768,16.5771471 6.86035156,16.1783881 6.86035156,15.6494141 C6.86035156,14.4856713 6.70166174,13.7247739 6.38427734,13.3666992 C6.05875488,13.0086245 5.25716785,12.410486 3.97949219,11.5722656 C2.70181653,10.7259072 1.85547083,10.1114928 1.44042969,9.72900391 C1.02538855,9.34651501 0.681560608,8.81754895 0.408935547,8.14208984 C0.136310486,7.46663074 0,6.60400916 0,5.55419922 C0,4.04051978 0.193276062,2.93376001 0.579833984,2.23388672 C0.966391907,1.53401343 1.59097876,0.986737 2.45361328,0.592041016 C3.3162478,0.197345032 4.35790405,0 5.57861328,0 C6.91325537,0 8.05053241,0.215655396 8.99047852,0.646972656 C9.93042462,1.07828992 10.552977,1.62149738 10.8581543,2.27661133 C11.1633316,2.93172528 11.315918,4.0445885 11.315918,5.61523437 L11.315918,6.39648438 Z M25.0366211,0.415039062 L25.0366211,13.6230469 C25.0366211,15.1204502 24.9877935,16.1722789 24.8901367,16.7785645 C24.79248,17.38485 24.5035831,18.0074024 24.0234375,18.6462402 C23.5432919,19.2850781 22.9105671,19.7692855 22.1252441,20.098877 C21.3399212,20.4284684 20.4142306,20.5932617 19.3481445,20.5932617 C18.1681256,20.5932617 17.1264694,20.3979512 16.2231445,20.0073242 C15.3198197,19.6166973 14.6443707,19.108076 14.1967773,18.4814453 C13.749184,17.8548146 13.4847009,17.193607 13.4033203,16.4978027 C13.3219397,15.8019985 13.28125,14.3392039 13.28125,12.109375 L13.28125,0.415039062 L18.4204102,0.415039062 L18.4204102,15.234375 C18.4204102,16.0970095 18.4672033,16.6483549 18.560791,16.8884277 C18.6543787,17.1285005 18.8435858,17.2485352 19.128418,17.2485352 C19.4539404,17.2485352 19.6634924,17.1162936 19.7570801,16.8518066 C19.8506678,16.5873196 19.8974609,15.9627328 19.8974609,14.9780273 L19.8974609,0.415039062 L25.0366211,0.415039062 Z M27.0263672,0.415039062 L32.2021484,0.415039062 C33.601895,0.415039062 34.6781375,0.524901245 35.4309082,0.744628906 C36.1836789,0.964356567 36.7492657,1.28173621 37.1276855,1.69677734 C37.5061054,2.11181848 37.7624505,2.61433624 37.8967285,3.2043457 C38.0310065,3.79435516 38.0981445,4.70783887 38.0981445,5.94482422 L38.0981445,7.66601562 C38.0981445,8.92741516 37.9679375,9.84700232 37.7075195,10.4248047 C37.4471016,11.0026071 36.9689976,11.4461248 36.2731934,11.7553711 C35.5773891,12.0646174 34.6679744,12.2192383 33.5449219,12.2192383 L32.1655273,12.2192383 L32.1655273,20.1782227 L27.0263672,20.1782227 L27.0263672,0.415039062 Z M32.1655273,3.79638672 L32.1655273,8.82568359 C32.3120125,8.83382166 32.4381505,8.83789062 32.5439453,8.83789062 C33.0159529,8.83789062 33.3435049,8.72192499 33.5266113,8.48999023 C33.7097177,8.25805548 33.8012695,7.77588257 33.8012695,7.04345703 L33.8012695,5.41992188 C33.8012695,4.74446277 33.6954763,4.30501404 33.4838867,4.1015625 C33.2722971,3.89811096 32.8328484,3.79638672 32.1655273,3.79638672 Z M39.5751953,0.415039062 L48.1445312,0.415039062 L48.1445312,4.37011719 L44.7143555,4.37011719 L44.7143555,8.11767578 L47.9248047,8.11767578 L47.9248047,11.8774414 L44.7143555,11.8774414 L44.7143555,16.2231445 L48.4863281,16.2231445 L48.4863281,20.1782227 L39.5751953,20.1782227 L39.5751953,0.415039062 Z M49.9633789,0.415039062 L53.6010742,0.415039062 C56.0262166,0.415039062 57.6680458,0.508625366 58.5266113,0.695800781 C59.3851768,0.882976196 60.0850396,1.36108014 60.6262207,2.13012695 C61.1674018,2.89917377 61.4379883,4.12596814 61.4379883,5.81054688 C61.4379883,7.3486405 61.2467467,8.38215881 60.8642578,8.91113281 C60.4817689,9.44010681 59.7290095,9.75748645 58.605957,9.86328125 C59.6232147,10.1155612 60.3068016,10.4532856 60.6567383,10.8764648 C61.0066749,11.299644 61.2243648,11.6882307 61.3098145,12.0422363 C61.3952641,12.396242 61.4379883,13.3707603 61.4379883,14.9658203 L61.4379883,20.1782227 L56.6650391,20.1782227 L56.6650391,13.6108398 C56.6650391,12.5528918 56.5816252,11.8977877 56.4147949,11.6455078 C56.2479647,11.3932279 55.8105504,11.2670898 55.1025391,11.2670898 L55.1025391,20.1782227 L49.9633789,20.1782227 L49.9633789,0.415039062 Z M55.1025391,3.79638672 L55.1025391,8.19091797 C55.6803414,8.19091797 56.0852039,8.11157306 56.3171387,7.95288086 C56.5490734,7.79418866 56.6650391,7.27946399 56.6650391,6.40869141 L56.6650391,5.32226562 C56.6650391,4.69563489 56.5531424,4.28466895 56.3293457,4.08935547 C56.105549,3.89404199 55.6966176,3.79638672 55.1025391,3.79638672 Z M78.7231445,6.39648438 L73.9501953,6.39648438 L73.9501953,4.93164062 C73.9501953,4.24804346 73.8891608,3.8126637 73.7670898,3.62548828 C73.6450189,3.43831287 73.4415704,3.34472656 73.1567383,3.34472656 C72.8474919,3.34472656 72.6135262,3.47086462 72.454834,3.72314453 C72.2961418,3.97542444 72.2167969,4.35790759 72.2167969,4.87060547 C72.2167969,5.52978845 72.3063142,6.02620276 72.4853516,6.35986328 C72.6562509,6.6935238 73.1404583,7.09635181 73.9379883,7.56835938 C76.2247836,8.92741565 77.6651989,10.0423134 78.2592773,10.9130859 C78.8533558,11.7838585 79.1503906,13.1876531 79.1503906,15.1245117 C79.1503906,16.5323964 78.9855974,17.5699836 78.6560059,18.2373047 C78.3264144,18.9046257 77.6896206,19.4641091 76.7456055,19.9157715 C75.8015903,20.3674339 74.7029685,20.5932617 73.449707,20.5932617 C72.0743746,20.5932617 70.9004769,20.3328477 69.9279785,19.8120117 C68.9554802,19.2911758 68.3186864,18.6279337 68.0175781,17.8222656 C67.7164698,17.0165975 67.565918,15.873217 67.565918,14.3920898 L67.565918,13.0981445 L72.3388672,13.0981445 L72.3388672,15.5029297 C72.3388672,16.2434933 72.4060052,16.7195627 72.5402832,16.9311523 C72.6745612,17.1427419 72.9125959,17.2485352 73.2543945,17.2485352 C73.5961931,17.2485352 73.8505037,17.1142592 74.017334,16.8457031 C74.1841642,16.5771471 74.2675781,16.1783881 74.2675781,15.6494141 C74.2675781,14.4856713 74.1088883,13.7247739 73.7915039,13.3666992 C73.4659814,13.0086245 72.6643944,12.410486 71.3867188,11.5722656 C70.1090431,10.7259072 69.2626974,10.1114928 68.8476562,9.72900391 C68.4326151,9.34651501 68.0887872,8.81754895 67.8161621,8.14208984 C67.543537,7.46663074 67.4072266,6.60400916 67.4072266,5.55419922 C67.4072266,4.04051978 67.6005026,2.93376001 67.9870605,2.23388672 C68.3736185,1.53401343 68.9982053,0.986737 69.8608398,0.592041016 C70.7234744,0.197345032 71.7651306,0 72.9858398,0 C74.3204819,0 75.457759,0.215655396 76.3977051,0.646972656 C77.3376512,1.07828992 77.9602036,1.62149738 78.2653809,2.27661133 C78.5705582,2.93172528 78.7231445,4.0445885 78.7231445,5.61523437 L78.7231445,6.39648438 Z M92.5048828,11.9873047 C92.5048828,13.9729917 92.4580897,15.3788207 92.364502,16.204834 C92.2709142,17.0308472 91.9779484,17.7856411 91.4855957,18.4692383 C90.993243,19.1528354 90.3279664,19.6777325 89.4897461,20.0439453 C88.6515258,20.4101581 87.674973,20.5932617 86.5600586,20.5932617 C85.5021106,20.5932617 84.5520062,20.4203305 83.7097168,20.0744629 C82.8674274,19.7285953 82.189944,19.2098016 81.6772461,18.5180664 C81.1645482,17.8263312 80.8593755,17.0735718 80.7617188,16.2597656 C80.664062,15.4459595 80.6152344,14.0218201 80.6152344,11.9873047 L80.6152344,8.60595703 C80.6152344,6.62027002 80.6620275,5.21444098 80.7556152,4.38842773 C80.8492029,3.56241449 81.1421688,2.80762061 81.6345215,2.12402344 C82.1268742,1.44042627 82.7921508,0.915529175 83.6303711,0.549316406 C84.4685914,0.183103638 85.4451442,0 86.5600586,0 C87.6180066,0 88.568111,0.172931213 89.4104004,0.518798828 C90.2526898,0.864666443 90.9301732,1.38346008 91.4428711,2.07519531 C91.955569,2.76693054 92.2607417,3.51968994 92.3583984,4.33349609 C92.4560552,5.14730225 92.5048828,6.57144165 92.5048828,8.60595703 L92.5048828,11.9873047 Z M87.3657227,5.49316406 C87.3657227,4.57356311 87.3148605,3.98559698 87.2131348,3.72924805 C87.111409,3.47289911 86.9018571,3.34472656 86.5844727,3.34472656 C86.3159166,3.34472656 86.1104337,3.44848529 85.9680176,3.65600586 C85.8256015,3.86352643 85.7543945,4.47590637 85.7543945,5.49316406 L85.7543945,14.7216797 C85.7543945,15.8691464 85.8011877,16.5771471 85.8947754,16.8457031 C85.9883631,17.1142592 86.206053,17.2485352 86.5478516,17.2485352 C86.8977882,17.2485352 87.1215815,17.0939143 87.2192383,16.784668 C87.316895,16.4754216 87.3657227,15.7389381 87.3657227,14.5751953 L87.3657227,5.49316406 Z M105.895996,0.415039062 L105.895996,20.1782227 L101.391602,20.1782227 L98.7182617,11.1938477 L98.7182617,20.1782227 L94.4213867,20.1782227 L94.4213867,0.415039062 L98.7182617,0.415039062 L101.599121,9.31396484 L101.599121,0.415039062 L105.895996,0.415039062 Z M113.098145,0.415039062 L113.098145,20.1782227 L107.958984,20.1782227 L107.958984,0.415039062 L113.098145,0.415039062 Z M127.160645,9.03320312 L122.021484,9.03320312 L122.021484,5.59082031 C122.021484,4.58983875 121.966553,3.96525189 121.856689,3.71704102 C121.746826,3.46883014 121.504722,3.34472656 121.130371,3.34472656 C120.707192,3.34472656 120.43864,3.49527844 120.324707,3.79638672 C120.210774,4.097495 120.153809,4.74853015 120.153809,5.74951172 L120.153809,14.9291992 C120.153809,15.8894905 120.210774,16.5161118 120.324707,16.809082 C120.43864,17.1020522 120.694985,17.2485352 121.09375,17.2485352 C121.476239,17.2485352 121.726481,17.1020522 121.844482,16.809082 C121.962484,16.5161118 122.021484,15.8284559 122.021484,14.7460938 L122.021484,12.2680664 L127.160645,12.2680664 L127.160645,13.0371094 C127.160645,15.0797628 127.016196,16.528316 126.727295,17.3828125 C126.438394,18.237309 125.799565,18.9859994 124.810791,19.6289062 C123.822017,20.2718131 122.60336,20.5932617 121.154785,20.5932617 C119.649244,20.5932617 118.408208,20.3206407 117.431641,19.7753906 C116.455073,19.2301405 115.808107,18.4753466 115.490723,17.5109863 C115.173338,16.546626 115.014648,15.0960383 115.014648,13.1591797 L115.014648,7.38525391 C115.014648,5.96109314 115.063476,4.89298859 115.161133,4.1809082 C115.25879,3.46882782 115.549721,2.78320642 116.033936,2.12402344 C116.51815,1.46484045 117.18953,0.946046814 118.048096,0.567626953 C118.906661,0.189207092 119.893386,0 121.008301,0 C122.52198,0 123.771154,0.29296582 124.755859,0.87890625 C125.740565,1.46484668 126.387531,2.19522675 126.696777,3.07006836 C127.006024,3.94490997 127.160645,5.30598035 127.160645,7.15332031 L127.160645,9.03320312 Z M133.410645,0.415039062 L138.586426,0.415039062 C139.986172,0.415039062 141.062415,0.524901245 141.815186,0.744628906 C142.567956,0.964356567 143.133543,1.28173621 143.511963,1.69677734 C143.890383,2.11181848 144.146728,2.61433624 144.281006,3.2043457 C144.415284,3.79435516 144.482422,4.70783887 144.482422,5.94482422 L144.482422,7.66601562 C144.482422,8.92741516 144.352215,9.84700232 144.091797,10.4248047 C143.831379,11.0026071 143.353275,11.4461248 142.657471,11.7553711 C141.961666,12.0646174 141.052252,12.2192383 139.929199,12.2192383 L138.549805,12.2192383 L138.549805,20.1782227 L133.410645,20.1782227 L133.410645,0.415039062 Z M138.549805,3.79638672 L138.549805,8.82568359 C138.69629,8.83382166 138.822428,8.83789062 138.928223,8.83789062 C139.40023,8.83789062 139.727782,8.72192499 139.910889,8.48999023 C140.093995,8.25805548 140.185547,7.77588257 140.185547,7.04345703 L140.185547,5.41992188 C140.185547,4.74446277 140.079754,4.30501404 139.868164,4.1015625 C139.656574,3.89811096 139.217126,3.79638672 138.549805,3.79638672 Z M145.959473,0.415039062 L149.597168,0.415039062 C152.02231,0.415039062 153.66414,0.508625366 154.522705,0.695800781 C155.381271,0.882976196 156.081133,1.36108014 156.622314,2.13012695 C157.163496,2.89917377 157.434082,4.12596814 157.434082,5.81054688 C157.434082,7.3486405 157.24284,8.38215881 156.860352,8.91113281 C156.477863,9.44010681 155.725103,9.75748645 154.602051,9.86328125 C155.619308,10.1155612 156.302895,10.4532856 156.652832,10.8764648 C157.002769,11.299644 157.220459,11.6882307 157.305908,12.0422363 C157.391358,12.396242 157.434082,13.3707603 157.434082,14.9658203 L157.434082,20.1782227 L152.661133,20.1782227 L152.661133,13.6108398 C152.661133,12.5528918 152.577719,11.8977877 152.410889,11.6455078 C152.244058,11.3932279 151.806644,11.2670898 151.098633,11.2670898 L151.098633,20.1782227 L145.959473,20.1782227 L145.959473,0.415039062 Z M151.098633,3.79638672 L151.098633,8.19091797 C151.676435,8.19091797 152.081298,8.11157306 152.313232,7.95288086 C152.545167,7.79418866 152.661133,7.27946399 152.661133,6.40869141 L152.661133,5.32226562 C152.661133,4.69563489 152.549236,4.28466895 152.325439,4.08935547 C152.101643,3.89404199 151.692711,3.79638672 151.098633,3.79638672 Z M171.166992,11.9873047 C171.166992,13.9729917 171.120199,15.3788207 171.026611,16.204834 C170.933024,17.0308472 170.640058,17.7856411 170.147705,18.4692383 C169.655352,19.1528354 168.990076,19.6777325 168.151855,20.0439453 C167.313635,20.4101581 166.337082,20.5932617 165.222168,20.5932617 C164.16422,20.5932617 163.214116,20.4203305 162.371826,20.0744629 C161.529537,19.7285953 160.852053,19.2098016 160.339355,18.5180664 C159.826658,17.8263312 159.521485,17.0735718 159.423828,16.2597656 C159.326171,15.4459595 159.277344,14.0218201 159.277344,11.9873047 L159.277344,8.60595703 C159.277344,6.62027002 159.324137,5.21444098 159.417725,4.38842773 C159.511312,3.56241449 159.804278,2.80762061 160.296631,2.12402344 C160.788984,1.44042627 161.45426,0.915529175 162.29248,0.549316406 C163.130701,0.183103638 164.107254,0 165.222168,0 C166.280116,0 167.23022,0.172931213 168.07251,0.518798828 C168.914799,0.864666443 169.592283,1.38346008 170.10498,2.07519531 C170.617678,2.76693054 170.922851,3.51968994 171.020508,4.33349609 C171.118165,5.14730225 171.166992,6.57144165 171.166992,8.60595703 L171.166992,11.9873047 Z M166.027832,5.49316406 C166.027832,4.57356311 165.97697,3.98559698 165.875244,3.72924805 C165.773518,3.47289911 165.563966,3.34472656 165.246582,3.34472656 C164.978026,3.34472656 164.772543,3.44848529 164.630127,3.65600586 C164.487711,3.86352643 164.416504,4.47590637 164.416504,5.49316406 L164.416504,14.7216797 C164.416504,15.8691464 164.463297,16.5771471 164.556885,16.8457031 C164.650472,17.1142592 164.868162,17.2485352 165.209961,17.2485352 C165.559898,17.2485352 165.783691,17.0939143 165.881348,16.784668 C165.979004,16.4754216 166.027832,15.7389381 166.027832,14.5751953 L166.027832,5.49316406 Z M183.496094,0.415039062 L181.70166,9.15527344 L184.411621,20.1782227 L179.650879,20.1782227 C179.081215,18.2088118 178.560386,15.8121886 178.088379,12.9882812 C177.95817,14.2334047 177.779135,15.5558198 177.55127,16.9555664 L177.062988,20.1782227 L172.058105,20.1782227 L173.913574,9.15527344 L172.058105,0.415039062 L177.026367,0.415039062 C177.115886,0.960289185 177.294921,1.86766943 177.563477,3.13720703 C177.775066,4.10563635 177.950032,4.99267175 178.088379,5.79833984 L179.187012,0.415039062 L183.496094,0.415039062 Z M190.283203,0.415039062 L190.283203,20.1782227 L185.144043,20.1782227 L185.144043,0.415039062 L190.283203,0.415039062 Z M192.346191,0.415039062 L200.915527,0.415039062 L200.915527,4.37011719 L197.485352,4.37011719 L197.485352,8.11767578 L200.695801,8.11767578 L200.695801,11.8774414 L197.485352,11.8774414 L197.485352,16.2231445 L201.257324,16.2231445 L201.257324,20.1782227 L192.346191,20.1782227 L192.346191,0.415039062 Z M213.623047,6.39648438 L208.850098,6.39648438 L208.850098,4.93164062 C208.850098,4.24804346 208.789063,3.8126637 208.666992,3.62548828 C208.544921,3.43831287 208.341473,3.34472656 208.056641,3.34472656 C207.747394,3.34472656 207.513429,3.47086462 207.354736,3.72314453 C207.196044,3.97542444 207.116699,4.35790759 207.116699,4.87060547 C207.116699,5.52978845 207.206217,6.02620276 207.385254,6.35986328 C207.556153,6.6935238 208.040361,7.09635181 208.837891,7.56835938 C211.124686,8.92741565 212.565101,10.0423134 213.15918,10.9130859 C213.753258,11.7838585 214.050293,13.1876531 214.050293,15.1245117 C214.050293,16.5323964 213.8855,17.5699836 213.555908,18.2373047 C213.226317,18.9046257 212.589523,19.4641091 211.645508,19.9157715 C210.701493,20.3674339 209.602871,20.5932617 208.349609,20.5932617 C206.974277,20.5932617 205.800379,20.3328477 204.827881,19.8120117 C203.855383,19.2911758 203.218589,18.6279337 202.91748,17.8222656 C202.616372,17.0165975 202.46582,15.873217 202.46582,14.3920898 L202.46582,13.0981445 L207.23877,13.0981445 L207.23877,15.5029297 C207.23877,16.2434933 207.305908,16.7195627 207.440186,16.9311523 C207.574464,17.1427419 207.812498,17.2485352 208.154297,17.2485352 C208.496095,17.2485352 208.750406,17.1142592 208.917236,16.8457031 C209.084067,16.5771471 209.16748,16.1783881 209.16748,15.6494141 C209.16748,14.4856713 209.008791,13.7247739 208.691406,13.3666992 C208.365884,13.0086245 207.564297,12.410486 206.286621,11.5722656 C205.008945,10.7259072 204.1626,10.1114928 203.747559,9.72900391 C203.332517,9.34651501 202.98869,8.81754895 202.716064,8.14208984 C202.443439,7.46663074 202.307129,6.60400916 202.307129,5.55419922 C202.307129,4.04051978 202.500405,2.93376001 202.886963,2.23388672 C203.273521,1.53401343 203.898108,0.986737 204.760742,0.592041016 C205.623377,0.197345032 206.665033,0 207.885742,0 C209.220384,0 210.357661,0.215655396 211.297607,0.646972656 C212.237554,1.07828992 212.860106,1.62149738 213.165283,2.27661133 C213.470461,2.93172528 213.623047,4.0445885 213.623047,5.61523437 L213.623047,6.39648438 Z" id="SUPER-SONIC-PROXIES"></path>
                </g>
            </g>
        </g>
    </g>
</svg>